<svg width="129" height="21" viewBox="0 0 129 21" fill="none" xmlns="http://www.w3.org/2000/svg">
<path d="M6.83088 20.1533C5.99769 19.8654 5.19547 19.4618 4.44486 18.9424C4.2738 18.8236 4.10422 18.6987 3.93905 18.5677C3.58956 18.2905 3.25186 17.9874 2.93185 17.6569C2.76226 17.4817 2.60153 17.3035 2.44816 17.1192C1.95857 16.5389 1.54271 15.9144 1.20059 15.261C-0.190026 12.6031 -0.372885 9.44869 0.653486 6.65983C0.736067 6.43745 0.826021 6.21659 0.923349 5.99878C1.12833 5.5388 1.3687 5.09252 1.64299 4.66299C1.77276 4.45889 1.91138 4.25784 2.0559 4.06287C2.32134 3.70341 2.6148 3.35767 2.93333 3.02867L2.97167 2.98906C3.13093 2.82761 3.29315 2.67073 3.45978 2.52299C3.79896 2.21988 4.1514 1.94267 4.5186 1.69592C7.48269 -0.319187 11.2549 -0.53852 14.3945 1.03793C14.1423 1.48421 13.8311 1.90307 13.4625 2.28385C13.3121 2.43921 13.1557 2.58391 12.995 2.71795C10.7727 1.79188 8.2274 1.94419 6.11124 3.17641C5.61428 3.46429 5.14091 3.81308 4.70293 4.22128C4.6115 4.30505 4.5245 4.39035 4.43749 4.47869C4.41979 4.49545 4.40357 4.5122 4.38735 4.52895C3.97002 4.96 3.60873 5.42608 3.30494 5.91958C3.25775 5.99574 3.21204 6.07189 3.1678 6.14957C2.80503 6.77863 2.53222 7.44728 2.34788 8.13727C2.2889 8.35203 2.24023 8.56832 2.20042 8.78765C1.98069 9.98026 2.01608 11.214 2.30954 12.3914C2.55434 13.3784 2.97904 14.3273 3.58513 15.1833C3.98329 14.2953 4.25316 13.3601 4.39325 12.4097C4.54514 11.3892 4.54809 10.3489 4.40062 9.32836C5.01409 9.60557 5.64672 9.82795 6.2882 9.99549C6.36636 10.0153 6.44452 10.0351 6.5212 10.0534C6.62 11.6588 6.41797 13.2824 5.91511 14.8223C5.69539 15.4971 5.41815 16.1566 5.08192 16.7917C5.48156 17.1207 5.90774 17.4025 6.34866 17.6401C6.40913 18.4915 6.57134 19.3354 6.83531 20.1533H6.83088Z" fill="#131313"/>
<path d="M16.3189 5.23878L16.2806 5.27839C15.7984 5.77188 15.2808 6.20293 14.7336 6.57305C14.6732 6.6157 14.6113 6.6553 14.5493 6.69643C13.4536 7.40621 12.2533 7.87533 11.019 8.1038C9.9336 8.30638 8.82169 8.32161 7.73339 8.15102C7.20693 8.06877 6.68342 7.94388 6.17319 7.77328C5.72636 7.62554 5.28691 7.44429 4.85925 7.22952C5.0775 6.84265 5.34295 6.47557 5.64968 6.13439C5.69539 6.08412 5.74406 6.03234 5.79124 5.9836C5.94166 5.82824 6.09798 5.68354 6.25872 5.5495C7.56085 6.09174 8.97506 6.26386 10.348 6.06433C11.3168 5.92572 12.2651 5.60129 13.1395 5.09104C13.3357 4.9768 13.5274 4.85495 13.7147 4.72092C14.101 4.44828 14.4697 4.13908 14.8148 3.78723C14.831 3.77048 14.8487 3.75373 14.8649 3.73697C15.3456 3.24043 15.7526 2.69514 16.0844 2.11635C16.4472 1.4873 16.72 0.817117 16.9044 0.127136C17.4765 0.539906 18.0222 1.01056 18.5339 1.53909C18.556 1.56193 18.5766 1.58326 18.5973 1.60611C18.3422 2.29913 18.0133 2.96931 17.6093 3.60294C17.4249 3.89081 17.2258 4.17107 17.012 4.44523C16.7967 4.71787 16.5652 4.9829 16.3189 5.23726V5.23878Z" fill="#131313"/>
<path d="M17.0931 17.6569C15.53 19.2714 13.5775 20.2416 11.5469 20.5645C10.7904 20.6849 10.0236 20.7153 9.26117 20.6559C8.90282 19.9431 8.6536 19.1876 8.51204 18.4154C9.19481 18.551 9.89085 18.5921 10.5825 18.5418C12.4243 18.4063 14.2308 17.6097 15.6391 16.1551C17.046 14.702 17.8157 12.8407 17.9499 10.9398C17.304 10.7525 16.6345 10.6794 15.9694 10.7205C14.5641 10.8073 13.1823 11.4059 12.1088 12.5148C11.0367 13.6221 10.4571 15.0447 10.3716 16.4947C9.70652 16.5374 9.03702 16.4643 8.39111 16.2754C8.52383 14.3745 9.29509 12.5132 10.7019 11.0602C11.0617 10.6885 11.4466 10.361 11.8522 10.0762C12.8785 9.35273 14.0332 8.90493 15.2188 8.73434C15.3973 8.70692 15.5787 8.68864 15.7586 8.67493C16.4487 8.62467 17.1448 8.6658 17.8275 8.80136C17.7243 8.23475 17.5621 7.67576 17.3409 7.13809C17.4825 7.00558 17.6226 6.8685 17.7582 6.72685C17.7833 6.70095 17.8084 6.67506 17.8334 6.64916C18.1977 6.26686 18.5324 5.86627 18.8377 5.45198C19.109 5.97289 19.3332 6.51361 19.5116 7.06498C19.7756 7.88291 19.9378 8.72672 19.9982 9.57816C20.0543 10.3641 20.0248 11.1577 19.9068 11.939C19.5927 14.0318 18.6548 16.0439 17.0931 17.6569Z" fill="#131313"/>
<path d="M30.8548 5.66089L25.3749 15.5476H27.1548L28.364 13.304H35.3525L36.5603 15.5476H38.3402L32.8603 5.66089H30.8533H30.8548ZM29.1913 11.7717L31.8634 6.81695L34.5296 11.7717H29.1913Z" fill="#131313"/>
<path d="M50.1744 13.5203C50.1744 12.9308 50.1051 12.4602 49.965 12.1053C49.8249 11.7504 49.6007 11.4808 49.2925 11.2935C49.1347 11.199 48.9489 11.1198 48.7322 11.0574C49.12 10.9172 49.4208 10.7223 49.6332 10.4725C49.965 10.0887 50.1301 9.51748 50.1301 8.76048C50.1301 8.00349 50.0019 7.38509 49.7467 6.94034C49.4901 6.48949 49.0861 6.16506 48.5346 5.96705C47.9875 5.76904 47.2545 5.667 46.3358 5.6609H39.5391V15.5476H41.145V11.9515H46.616C47.1159 11.9515 47.5067 12.0002 47.7854 12.0962C48.0641 12.186 48.2647 12.346 48.3871 12.5744C48.5154 12.7968 48.5788 13.1121 48.5788 13.5203C48.5788 13.9711 48.5906 14.3611 48.6142 14.6916C48.6437 15.016 48.6894 15.3008 48.7543 15.5476H50.4384C50.3455 15.2947 50.2791 15.0008 50.2378 14.6642C50.1965 14.3215 50.1773 13.9407 50.1773 13.5203H50.1744ZM47.7574 10.2577C47.4846 10.3598 47.1027 10.4116 46.6145 10.4116H41.1435V7.1947H46.6145C47.1027 7.1947 47.4846 7.24649 47.7574 7.34854C48.0302 7.4445 48.2293 7.60747 48.3502 7.83594C48.4726 8.05832 48.5331 8.36752 48.5331 8.76353C48.5331 9.15955 48.4726 9.5053 48.3502 9.74595C48.2278 9.98052 48.0302 10.1511 47.7574 10.2593V10.2577Z" fill="#131313"/>
<path d="M50.8984 7.19318H55.6705V15.5476H57.2764V7.19318H62.0676V5.6609H50.8984V7.19318Z" fill="#131313"/>
<path d="M68.5665 6.90515H73.3386V15.2596H74.9445V6.90515H79.7342V5.37288H68.5665V6.90515Z" fill="#131313"/>
<path d="M91.5581 13.2307C91.5581 12.6413 91.4887 12.1706 91.3487 11.8158C91.2086 11.4609 90.9859 11.1913 90.6762 11.0039C90.5184 10.9095 90.3326 10.8303 90.1158 10.7678C90.5037 10.6277 90.8045 10.4327 91.0169 10.1829C91.3487 9.79912 91.5138 9.22794 91.5138 8.47094C91.5138 7.71394 91.3855 7.09555 91.1304 6.65079C90.8738 6.19994 90.4697 5.87551 89.9182 5.67751C89.3711 5.4795 88.6382 5.37745 87.7195 5.37135H80.9227V15.258H82.5286V11.6619H87.9997C88.4996 11.6619 88.8904 11.7106 89.1691 11.8066C89.4478 11.8965 89.6484 12.0564 89.7708 12.2849C89.8991 12.5073 89.9625 12.8225 89.9625 13.2307C89.9625 13.6816 89.9743 14.0715 89.9979 14.402C90.0273 14.7265 90.0731 15.0113 90.1379 15.258H91.822C91.7291 15.0052 91.6613 14.7112 91.6215 14.3746C91.5802 14.0319 91.561 13.6511 91.561 13.2307H91.5581ZM89.1411 9.96818C88.8683 10.0702 88.4863 10.122 87.9982 10.122H82.5272V6.90515H87.9982C88.4863 6.90515 88.8683 6.95694 89.1411 7.05899C89.4139 7.15495 89.6115 7.31793 89.7339 7.5464C89.8563 7.76878 89.9167 8.07797 89.9167 8.47399C89.9167 8.87 89.8563 9.21575 89.7339 9.45641C89.6115 9.69097 89.4139 9.86156 89.1411 9.9697V9.96818Z" fill="#131313"/>
<path d="M97.9979 5.37288L92.5181 15.2596H94.298L95.5072 13.016H102.496L103.703 15.2596H105.483L100.003 5.37288H97.9965H97.9979ZM96.3345 11.4837L99.0066 6.52894L101.673 11.4837H96.3345Z" fill="#131313"/>
<path d="M109.201 7.02232C109.922 6.78776 110.9 6.67048 112.133 6.67048C112.913 6.67048 113.593 6.73293 114.175 6.85935C114.756 6.98577 115.213 7.19291 115.545 7.48078C115.883 7.76256 116.051 8.13573 116.051 8.59877H117.648C117.648 7.87223 117.447 7.25231 117.046 6.74206C116.645 6.22572 116.035 5.82818 115.213 5.55249C114.399 5.2768 113.373 5.1382 112.133 5.1382C110.505 5.1382 109.207 5.33926 108.241 5.74136C107.281 6.14347 106.592 6.72379 106.174 7.48078C105.761 8.23169 105.554 9.16842 105.554 10.2925C105.554 11.4166 105.761 12.3563 106.174 13.1133C106.592 13.8643 107.281 14.4415 108.241 14.8436C109.207 15.2457 110.505 15.4468 112.133 15.4468C113.371 15.4468 114.399 15.3082 115.213 15.0325C116.033 14.7507 116.644 14.3532 117.046 13.8429C117.447 13.3266 117.648 12.7067 117.648 11.9862H116.051C116.051 12.4432 115.883 12.8148 115.545 13.1042C115.213 13.386 114.755 13.5931 114.166 13.7256C113.585 13.8521 112.907 13.9145 112.133 13.9145C110.888 13.9145 109.904 13.7942 109.183 13.5535C108.468 13.3129 107.951 12.9321 107.631 12.4097C107.316 11.8811 107.16 11.1744 107.16 10.291C107.16 9.40755 107.319 8.67797 107.639 8.15554C107.965 7.6331 108.486 7.25384 109.201 7.01927V7.02232Z" fill="#131313"/>
<path d="M120.885 13.7273V10.8607H128.485V9.32847H120.885V6.90515H128.895V5.37288H119.28V15.2596H129V13.7273H120.885Z" fill="#131313"/>
</svg>
