<svg width="129" height="21" viewBox="0 0 129 21" fill="none" xmlns="http://www.w3.org/2000/svg">
<path d="M6.83088 19.512C5.99769 19.2333 5.19547 18.8425 4.44486 18.3397C4.2738 18.2246 4.10422 18.1037 3.93905 17.9769C3.58956 17.7085 3.25186 17.415 2.93185 17.095C2.76226 16.9255 2.60153 16.7529 2.44816 16.5745C1.95857 16.0126 1.54271 15.408 1.20059 14.7754C-0.190026 12.2021 -0.372885 9.14803 0.653486 6.44791C0.736067 6.23261 0.826021 6.01878 0.923349 5.80791C1.12833 5.36255 1.3687 4.93047 1.64299 4.51462C1.77276 4.31701 1.91138 4.12235 2.0559 3.9336C2.32134 3.58557 2.6148 3.25083 2.93333 2.9323L2.97167 2.89395C3.13093 2.73764 3.29315 2.58575 3.45978 2.4427C3.79896 2.14925 4.1514 1.88086 4.5186 1.64196C7.48269 -0.30903 11.2549 -0.521384 14.3945 1.0049C14.1423 1.43698 13.8311 1.84251 13.4625 2.21118C13.3121 2.3616 13.1557 2.50169 12.995 2.63146C10.7727 1.73486 8.2274 1.88233 6.11124 3.07534C5.61428 3.35405 5.14091 3.69175 4.70293 4.08696C4.6115 4.16807 4.5245 4.25065 4.43749 4.33618C4.41979 4.3524 4.40357 4.36862 4.38735 4.38484C3.97002 4.80218 3.60873 5.25343 3.30494 5.73122C3.25775 5.80495 3.21204 5.87869 3.1678 5.9539C2.80503 6.56294 2.53222 7.21031 2.34788 7.87834C2.2889 8.08627 2.24023 8.29568 2.20042 8.50803C1.98069 9.66269 2.01608 10.8572 2.30954 11.9971C2.55434 12.9527 2.97904 13.8714 3.58513 14.7002C3.98329 13.8404 4.25316 12.935 4.39325 12.0148C4.54514 11.0268 4.54809 10.0196 4.40062 9.03153C5.01409 9.29992 5.64672 9.51523 6.2882 9.67744C6.36636 9.69661 6.44452 9.71578 6.5212 9.73348C6.62 11.2878 6.41797 12.8598 5.91511 14.3507C5.69539 15.0039 5.41815 15.6425 5.08192 16.2574C5.48156 16.576 5.90774 16.8488 6.34866 17.0788C6.40913 17.9032 6.57134 18.7201 6.83531 19.512H6.83088Z" fill="white"/>
<path d="M16.319 5.07203L16.2807 5.11037C15.7985 5.58816 15.2809 6.0055 14.7338 6.36384C14.6733 6.40513 14.6114 6.44347 14.5494 6.48329C13.4538 7.17048 12.2534 7.62468 11.0191 7.84588C9.93372 8.04201 8.82182 8.05676 7.73351 7.8916C7.20705 7.81196 6.68354 7.69104 6.17331 7.52588C5.72648 7.38284 5.28703 7.20735 4.85938 6.99942C5.07763 6.62486 5.34307 6.26946 5.6498 5.93913C5.69551 5.89047 5.74418 5.84033 5.79137 5.79314C5.94178 5.64273 6.0981 5.50263 6.25884 5.37286C7.56097 5.89784 8.97518 6.06448 10.3481 5.8713C11.317 5.73711 12.2652 5.423 13.1397 4.92898C13.3358 4.81838 13.5275 4.70041 13.7148 4.57064C14.1011 4.30667 14.4698 4.00731 14.8149 3.66667C14.8311 3.65044 14.8488 3.63422 14.865 3.618C15.3458 3.13726 15.7528 2.60933 16.0846 2.04895C16.4473 1.43991 16.7202 0.791058 16.9045 0.123032C17.4767 0.522667 18.0223 0.978344 18.534 1.49005C18.5561 1.51217 18.5768 1.53282 18.5974 1.55494C18.3423 2.22592 18.0134 2.87477 17.6094 3.48823C17.425 3.76694 17.226 4.03828 17.0121 4.30372C16.7968 4.56769 16.5653 4.82429 16.319 5.07056V5.07203Z" fill="white"/>
<path d="M17.0931 17.095C15.53 18.6582 13.5775 19.5975 11.5469 19.9102C10.7904 20.0267 10.0236 20.0562 9.26117 19.9987C8.90282 19.3085 8.6536 18.5771 8.51204 17.8294C9.19481 17.9607 9.89085 18.0005 10.5825 17.9518C12.4243 17.8206 14.2308 17.0493 15.6391 15.641C17.046 14.2342 17.8157 12.4321 17.9499 10.5917C17.304 10.4103 16.6345 10.3396 15.9694 10.3794C14.5641 10.4634 13.1823 11.043 12.1088 12.1165C11.0367 13.1886 10.4571 14.566 10.3716 15.9699C9.70652 16.0111 9.03702 15.9404 8.39111 15.7575C8.52383 13.9171 9.29509 12.1151 10.7019 10.7082C11.0617 10.3484 11.4466 10.0314 11.8522 9.75559C12.8785 9.05512 14.0332 8.62157 15.2188 8.4564C15.3973 8.42986 15.5787 8.41216 15.7586 8.39889C16.4487 8.35022 17.1448 8.39004 17.8275 8.52129C17.7243 7.97271 17.5621 7.4315 17.3409 6.91095C17.4825 6.78265 17.6226 6.64993 17.7582 6.51279C17.7833 6.48772 17.8084 6.46265 17.8334 6.43758C18.1977 6.06744 18.5324 5.6796 18.8377 5.27849C19.109 5.78283 19.3332 6.30633 19.5116 6.84016C19.7756 7.63206 19.9378 8.44903 19.9982 9.27337C20.0543 10.0343 20.0248 10.8026 19.9068 11.5591C19.5927 13.5853 18.6548 15.5334 17.0931 17.095Z" fill="white"/>
<path d="M30.8549 5.48053L25.375 15.0526H27.1549L28.3642 12.8804H35.3526L36.5604 15.0526H38.3403L32.8604 5.48053H30.8534H30.8549ZM29.1914 11.3969L31.8636 6.5998L34.5298 11.3969H29.1914Z" fill="white"/>
<path d="M50.1744 13.0898C50.1744 12.5191 50.1051 12.0635 49.965 11.7199C49.8249 11.3763 49.6007 11.1153 49.2925 10.9339C49.1347 10.8424 48.9489 10.7658 48.7322 10.7053C49.12 10.5696 49.4208 10.3809 49.6332 10.139C49.965 9.76741 50.1301 9.21441 50.1301 8.4815C50.1301 7.74859 50.0019 7.14987 49.7467 6.71927C49.4901 6.28277 49.0861 5.96866 48.5346 5.77695C47.9875 5.58524 47.2545 5.48644 46.3358 5.48055H39.5391V15.0526H41.145V11.5709H46.616C47.1159 11.5709 47.5067 11.6181 47.7854 11.711C48.0641 11.798 48.2647 11.9529 48.3871 12.1741C48.5154 12.3894 48.5788 12.6946 48.5788 13.0898C48.5788 13.5263 48.5906 13.9039 48.6142 14.2239C48.6437 14.538 48.6894 14.8137 48.7543 15.0526H50.4384C50.3455 14.8078 50.2791 14.5232 50.2378 14.1973C50.1965 13.8655 50.1773 13.4969 50.1773 13.0898H50.1744ZM47.7574 9.9311C47.4846 10.0299 47.1027 10.08 46.6145 10.08H41.1435V6.96554H46.6145C47.1027 6.96554 47.4846 7.01568 47.7574 7.11448C48.0302 7.20738 48.2293 7.36517 48.3502 7.58637C48.4726 7.80168 48.5331 8.10103 48.5331 8.48445C48.5331 8.86786 48.4726 9.20261 48.3502 9.43561C48.2278 9.66271 48.0302 9.82788 47.7574 9.93258V9.9311Z" fill="white"/>
<path d="M50.8984 6.96406H55.6705V15.0526H57.2764V6.96406H62.0676V5.48055H50.8984V6.96406Z" fill="white"/>
<path d="M68.5664 6.68533H73.3384V14.7739H74.9444V6.68533H79.7341V5.20181H68.5664V6.68533Z" fill="white"/>
<path d="M91.5582 12.8096C91.5582 12.2389 91.4889 11.7833 91.3488 11.4397C91.2087 11.0961 90.986 10.8351 90.6763 10.6537C90.5185 10.5622 90.3327 10.4856 90.116 10.4251C90.5038 10.2894 90.8046 10.1007 91.017 9.85882C91.3488 9.48721 91.5139 8.9342 91.5139 8.20129C91.5139 7.46838 91.3856 6.86966 91.1305 6.43906C90.8739 6.00256 90.4699 5.68845 89.9183 5.49674C89.3712 5.30504 88.6383 5.20623 87.7196 5.20033H80.9229V14.7724H82.5288V11.2907H87.9998C88.4997 11.2907 88.8905 11.3379 89.1692 11.4308C89.4479 11.5178 89.6485 11.6727 89.7709 11.8939C89.8992 12.1092 89.9626 12.4144 89.9626 12.8096C89.9626 13.2461 89.9744 13.6237 89.998 13.9437C90.0275 14.2578 90.0732 14.5335 90.1381 14.7724H91.8221C91.7292 14.5276 91.6614 14.243 91.6216 13.9171C91.5803 13.5853 91.5611 13.2167 91.5611 12.8096H91.5582ZM89.1412 9.65089C88.8684 9.7497 88.4864 9.79983 87.9983 9.79983H82.5273V6.68533H87.9983C88.4864 6.68533 88.8684 6.73547 89.1412 6.83427C89.414 6.92717 89.6116 7.08497 89.734 7.30617C89.8564 7.52147 89.9169 7.82083 89.9169 8.20424C89.9169 8.58766 89.8564 8.9224 89.734 9.1554C89.6116 9.3825 89.414 9.54766 89.1412 9.65236V9.65089Z" fill="white"/>
<path d="M97.9984 5.20181L92.5186 14.7739H94.2985L95.5077 12.6017H102.496L103.704 14.7739H105.484L100.004 5.20181H97.997H97.9984ZM96.335 11.1182L99.0071 6.32109L101.673 11.1182H96.335Z" fill="white"/>
<path d="M109.202 6.79887C109.923 6.57177 110.9 6.45822 112.133 6.45822C112.913 6.45822 113.593 6.51868 114.176 6.64108C114.757 6.76348 115.214 6.96403 115.546 7.24275C115.883 7.51556 116.051 7.87685 116.051 8.32515H117.648C117.648 7.62174 117.448 7.02154 117.047 6.52753C116.646 6.02762 116.035 5.64273 115.214 5.37581C114.4 5.1089 113.373 4.9747 112.133 4.9747C110.505 4.9747 109.207 5.16936 108.242 5.55867C107.282 5.94799 106.593 6.50983 106.174 7.24275C105.761 7.96976 105.555 8.87668 105.555 9.96499C105.555 11.0533 105.761 11.9632 106.174 12.6961C106.593 13.4231 107.282 13.982 108.242 14.3713C109.207 14.7606 110.505 14.9553 112.133 14.9553C113.372 14.9553 114.4 14.8211 115.214 14.5542C116.034 14.2813 116.644 13.8965 117.047 13.4024C117.448 12.9025 117.648 12.3023 117.648 11.6048H116.051C116.051 12.0472 115.883 12.407 115.546 12.6872C115.214 12.96 114.755 13.1606 114.167 13.2889C113.586 13.4113 112.907 13.4718 112.133 13.4718C110.889 13.4718 109.905 13.3553 109.184 13.1223C108.469 12.8893 107.951 12.5206 107.631 12.0148C107.317 11.5031 107.161 10.8188 107.161 9.96352C107.161 9.10821 107.32 8.40184 107.64 7.89603C107.966 7.39022 108.486 7.02302 109.202 6.79592V6.79887Z" fill="white"/>
<path d="M120.885 13.2904V10.5151H128.485V9.03153H120.885V6.68533H128.895V5.20181H119.28V14.7739H129V13.2904H120.885Z" fill="white"/>
</svg>
